<svg xmlns="http://www.w3.org/2000/svg" viewBox="0 0 512 512">
  <!-- minicontrol: a minichord seen from above, its chord buttons, harp strip and knobs -->
  <rect width="512" height="512" rx="112" fill="#d92626"/>
  <g id="minichord">
    <path fill="#fff" d="M103.8 208.5 L289.0 127.7 A140 140 0 1 1 319.4 393.6 L120.7 356.7 A78 78 0 0 1 103.8 208.5 Z"/>
    <g fill="#d92626">
      <rect x="104" y="226" width="30" height="30" rx="6"/>
      <rect x="143" y="214" width="30" height="30" rx="6"/>
      <rect x="182" y="202" width="30" height="30" rx="6"/>
      <rect x="221" y="190" width="30" height="30" rx="6"/>
      <rect x="260" y="178" width="30" height="30" rx="6"/>
      <rect x="104" y="265" width="30" height="30" rx="6"/>
      <rect x="143" y="253" width="30" height="30" rx="6"/>
      <rect x="182" y="241" width="30" height="30" rx="6"/>
      <rect x="221" y="229" width="30" height="30" rx="6"/>
      <rect x="260" y="217" width="30" height="30" rx="6"/>
      <rect x="104" y="304" width="30" height="30" rx="6"/>
      <rect x="143" y="292" width="30" height="30" rx="6"/>
      <rect x="182" y="280" width="30" height="30" rx="6"/>
      <rect x="221" y="268" width="30" height="30" rx="6"/>
      <rect x="260" y="256" width="30" height="30" rx="6"/>
      <rect x="326" y="160" width="26" height="196" rx="13"/>
      <circle cx="410" cy="200" r="19"/>
      <circle cx="410" cy="256" r="19"/>
      <circle cx="410" cy="312" r="19"/>
    </g>
  </g>
</svg>
